<svg width="164.5" height="61.9" xmlns="http://www.w3.org/2000/svg" xmlns:xlink="http://www.w3.org/1999/xlink">
 <defs>
  <path d="m113.4,837.1c0,8.3 -6.7,15 -15,15l-55,0c-8.3,0 -15,-6.7 -15,-15l0,-54c0,-8.3 6.7,-15 15,-15l55,0c8.3,0 15,6.7 15,15l0,54z" id="SVGID_3_"/>
  <style>@import url(https://fonts.googleapis.com/css?family=Allan:400,700);</style>
 </defs>
 <clipPath id="SVGID_4_">
  <use id="svg_1" xlink:href="#SVGID_3_"/>
 </clipPath>
 <g>
  <title>background</title>
  <rect fill="none" id="canvas_background" height="63.9" width="166.5" y="-1" x="-1"/>
 </g>
 <g>
  <title>Layer 1</title>
  <path id="svg_2" fill=" rgb(77, 77, 77)" d="m39.150678,24.096088c-8.408127,0 -15.210682,6.802555 -15.210682,15.210682c0,8.408127 6.802555,15.210682 15.210682,15.210682c8.408127,0 15.210682,-6.802555 15.210682,-15.210682c0,-8.408127 -6.802555,-15.210682 -15.210682,-15.210682zm0,12.675568l7.605341,-5.070227l-7.605341,10.140455l-7.605341,-10.140455l7.605341,5.070227zm0,12.675568l-10.140455,-17.745795l10.140455,12.675568l10.140455,-12.675568l-10.140455,17.745795z" class="st0"/>
  <path id="svg_4" fill=" rgb(255, 255, 255)" class="st5" d="m1,835.29999l163.10001,0l0,51.3l-163.10001,0l0,-51.3z"/>
  <path id="svg_5" d="m65.276971,26.800385l5.484039,0c1.656233,0 2.92923,0.436107 3.819006,1.308267c0.889789,0.863333 1.325869,2.193589 1.308241,3.990782c-0.008814,1.797166 -0.427266,3.237552 -1.255382,4.321145c-0.836917,1.083607 -1.673848,1.797206 -2.510765,2.140757c1.453601,0.836917 1.977782,2.400661 1.572532,4.691193c-0.396437,2.290518 -1.308254,4.105312 -2.735399,5.444382c-1.427185,1.347871 -3.404967,2.021827 -5.933347,2.021827l-3.475427,0c-0.264291,0 -0.458109,-0.101303 -0.581454,-0.303948c-0.123318,-0.193818 -0.149747,-0.431667 -0.079274,-0.713559l5.246177,-20.614715l-0.819302,0c-0.29072,0 -0.546197,-0.088115 -0.766444,-0.264304c-0.220247,-0.17619 -0.295121,-0.378795 -0.224647,-0.607856l0.198218,-0.753243c0.044057,-0.17619 0.149774,-0.330364 0.317149,-0.462509c0.167376,-0.132119 0.312749,-0.198218 0.43608,-0.198218m0.885375,12.752043l-2.272903,8.919823l2.087899,-0.092475c1.118837,-0.052871 2.167187,-0.533009 3.145077,-1.440386c0.986678,-0.907404 1.634191,-2.123156 1.942513,-3.64723c0.308348,-1.5241 0.110143,-2.57245 -0.594642,-3.145063c-0.264291,-0.246689 -0.673942,-0.405251 -1.228953,-0.475711c-0.546197,-0.079314 -1.572532,-0.118957 -3.078991,-0.118957m2.656125,-10.465912l-2.06147,8.113722l2.682554,0.066099c1.030735,0.035243 1.841236,-0.370007 2.431464,-1.215765c0.581454,-0.836917 0.969076,-1.81038 1.162894,-2.920403c0.185004,-1.11885 0.088088,-2.070297 -0.29072,-2.854343c-0.370007,-0.792886 -1.030735,-1.18931 -1.982183,-1.18931l-1.942539,0zm6.959999,16.83534c0.096902,-2.942432 0.832517,-5.730715 2.20683,-8.364798c1.374313,-2.634123 3.127435,-3.929123 5.259379,-3.885078c1.110036,0.061659 1.968982,0.612243 2.576851,1.651819c0.466923,0.722387 0.656314,1.946926 0.568226,3.673632c-0.088101,3.25078 -0.97789,6.263698 -2.669353,9.038754c-1.171682,2.035054 -2.748627,3.017318 -4.73081,2.946858c-0.695958,-0.026456 -1.347871,-0.334791 -1.955754,-0.925032c-0.898576,-0.863333 -1.317028,-2.24206 -1.255369,-4.136155m5.629386,1.33467c1.497671,-2.361018 2.286131,-4.999488 2.365418,-7.915504c0.026442,-1.286238 -0.039644,-2.149572 -0.198232,-2.590079c-0.149761,-0.440454 -0.475724,-0.665115 -0.977864,-0.673916c-0.493352,-0.017615 -0.942634,0.211406 -1.347884,0.687144c-0.414065,0.475711 -0.814902,1.132038 -1.202537,1.968955c-0.977864,1.955767 -1.506459,4.246298 -1.585733,6.87158c-0.044044,1.982183 0.299534,3.004091 1.030735,3.065789c0.634285,0.017628 1.272997,-0.453722 1.916097,-1.41397zm10.786788,-8.893407c0.704772,-1.136425 1.352285,-2.083486 1.942539,-2.841116c0.599055,-0.748842 1.035136,-1.220152 1.308227,-1.41397c0.273105,-0.184977 0.753243,-0.277492 1.440413,-0.277492l0.330364,0c0.643099,0 0.863333,0.246689 0.660728,0.740015c-0.10573,0.255477 -0.374421,0.57704 -0.806088,0.964676c-0.431693,0.387622 -1.017534,1.04835 -1.757549,1.982183c-0.731214,0.94262 -1.096808,1.550477 -1.096808,1.823608c0,0.581414 0.273105,1.127651 0.819302,1.638591c0.132146,0.105703 0.171789,0.220234 0.118918,0.343592c-0.052845,0.123331 -0.167376,0.207006 -0.343565,0.25105l-1.255382,0.224661c-0.352379,0.061659 -0.625498,0.022015 -0.819289,-0.118931c-0.185004,-0.132146 -0.51098,-0.629911 -0.97789,-1.493244l-2.52398,9.805211c-0.140946,0.484538 -0.475724,0.726787 -1.004306,0.726787l-0.951448,0c-0.625484,0 -0.867747,-0.251076 -0.7268,-0.753243l4.030438,-15.355297c0.105716,-0.449295 0.414065,-0.673955 0.925019,-0.673955l1.017521,0c0.29072,0 0.484538,0.048471 0.581454,0.145373c0.096902,0.096916 0.110104,0.281893 0.03963,0.554998l-0.951448,3.726504zm9.438375,-9.448392l0.303948,0c0.370007,0 0.709185,0.162962 1.017507,0.488938c0.317162,0.334751 0.475724,0.717986 0.475724,1.149653c0,0.431706 -0.162962,0.801714 -0.488925,1.110022c-0.32595,0.308335 -0.731201,0.462509 -1.215739,0.462509l-0.251076,0c-0.378822,0 -0.713573,-0.158561 -1.004306,-0.475697c-0.299534,-0.317176 -0.449308,-0.691584 -0.449308,-1.12325c0,-0.431667 0.154174,-0.810501 0.462523,-1.136465c0.308348,-0.317136 0.691557,-0.475711 1.149653,-0.475711m0.594681,5.721888l-4.004009,15.355336c-0.123345,0.484538 -0.449308,0.726787 -0.97789,0.726787l-0.964649,0c-0.616697,0 -0.858959,-0.251076 -0.726814,-0.753243l4.030452,-15.355297c0.10569,-0.449295 0.414038,-0.673955 0.925005,-0.673955l1.096808,0c0.290733,0 0.484538,0.048471 0.581454,0.145373c0.096902,0.096916 0.110117,0.281893 0.039644,0.554998zm6.530949,-0.89859l0.50214,0c0.75763,0 1.453614,0.286333 2.087899,0.858946c0.634312,0.572653 1.149679,1.277411 1.546103,2.114328c0.220247,0.466923 0.14536,0.819302 -0.224647,1.057191l-1.004293,0.554998c-0.458109,0.334751 -0.784072,0.281919 -0.97789,-0.158575c-0.026416,-0.044044 -0.118918,-0.246689 -0.277492,-0.607856c-0.149774,-0.370007 -0.273092,-0.629924 -0.370007,-0.779659c-0.096902,-0.158601 -0.268705,-0.334791 -0.515368,-0.528609c-0.237862,-0.193818 -0.515368,-0.317136 -0.832517,-0.370007c-0.546197,0.114531 -1.061565,0.480138 -1.546103,1.096834c-0.484538,0.616684 -0.7268,1.488804 -0.7268,2.616455c0,0.484538 0.118918,0.819329 0.356793,1.004319c0.229048,0.185017 0.638686,0.343592 1.22894,0.475737l0.925019,0.198218c1.339083,0.29072 2.008625,1.400729 2.008625,3.330054c0,1.154093 -0.431667,2.479935 -1.295026,3.97758c-0.405251,0.695984 -0.964662,1.290612 -1.678248,1.783978c-0.704772,0.484538 -1.471216,0.726787 -2.299345,0.726787l-0.237849,0c-0.845731,0 -1.59456,-0.29072 -2.246474,-0.87216c-0.660728,-0.590241 -1.12325,-1.18931 -1.387528,-1.797166c-0.273105,-0.607896 -0.273105,-1.061578 0,-1.361099l0.7268,-0.594668c0.229035,-0.229061 0.47131,-0.330364 0.7268,-0.303948c0.264291,0.017615 0.444881,0.207046 0.541783,0.568252c0.096916,0.370007 0.365607,0.814902 0.806088,1.334643c0.440507,0.510994 0.850145,0.779659 1.228967,0.806114c0.660728,-0.114531 1.233354,-0.506567 1.717892,-1.176122c0.475724,-0.669515 0.713586,-1.440373 0.713586,-2.312547c0,-0.87216 -0.079287,-1.427158 -0.237862,-1.665007c-0.158588,-0.246676 -0.528595,-0.436093 -1.110036,-0.568252l-0.726787,-0.158575c-0.845745,-0.202606 -1.449214,-0.554985 -1.810407,-1.057138c-0.352379,-0.510994 -0.528569,-1.193737 -0.528569,-2.048282c0,-1.435986 0.510954,-2.8191 1.532888,-4.149356c1.021921,-1.330283 2.149572,-1.995411 3.382925,-1.995411zm4.260953,12.183831c0.096916,-2.942432 0.83253,-5.730715 2.20683,-8.364798c1.374327,-2.634123 3.127448,-3.929123 5.259392,-3.885078c1.110036,0.061659 1.968968,0.612243 2.576851,1.651819c0.46691,0.722387 0.656314,1.946926 0.568213,3.673632c-0.088088,3.25078 -0.977877,6.263698 -2.66934,9.038754c-1.171682,2.035054 -2.748627,3.017318 -4.73081,2.946858c-0.695958,-0.026456 -1.347871,-0.334791 -1.955754,-0.925032c-0.898576,-0.863333 -1.317042,-2.24206 -1.255382,-4.136155m5.629399,1.33467c1.497658,-2.361018 2.286131,-4.999488 2.365418,-7.915504c0.026429,-1.286238 -0.039644,-2.149572 -0.198232,-2.590079c-0.149761,-0.440454 -0.475724,-0.665115 -0.977864,-0.673916c-0.493352,-0.017615 -0.942647,0.211406 -1.347898,0.687144c-0.414065,0.475711 -0.814902,1.132038 -1.202524,1.968955c-0.977864,1.955767 -1.506459,4.246298 -1.585746,6.87158c-0.044031,1.982183 0.299534,3.004091 1.030735,3.065789c0.634299,0.017628 1.272997,-0.453722 1.91611,-1.41397zm10.03085,0.343592c2.008599,-3.321253 3.708862,-7.712898 5.100817,-13.174909c0.10569,-0.458122 0.409638,-0.669555 0.911778,-0.634312l0.925045,0.092515c0.599042,0.105703 0.832504,0.378795 0.700371,0.819289c-1.73552,5.902518 -3.739732,10.611286 -6.012635,14.12637c-0.836917,1.277371 -1.554904,1.907296 -2.153972,1.889668l-0.925019,-0.06606c-0.678356,-0.044071 -0.982277,-0.58144 -0.911804,-1.612175c0.255477,-4.096524 0.220247,-8.726005 -0.105716,-13.888508c-0.044044,-0.810501 0.220247,-1.215752 0.792873,-1.215752l0.925019,0c0.502153,0 0.766444,0.255517 0.792886,0.766457c0.29072,5.276994 0.277492,9.576163 -0.039644,12.897416zm18.24931,-6.435513l4.849741,0l0.79286,-11.470218l-5.642601,11.470218m-1.149679,2.391834l-3.211123,6.501573c-0.246689,0.502153 -0.65634,0.722387 -1.228967,0.660728l-0.753216,-0.06606c-0.378822,-0.017615 -0.625511,-0.158601 -0.740015,-0.422879c-0.123345,-0.264304 -0.11013,-0.541797 0.039644,-0.832517l11.007722,-21.209343c0.458096,-0.880988 1.065965,-1.321455 1.823595,-1.321455l1.321455,-0.039644c0.87216,0 1.272997,0.532969 1.202551,1.598948l-1.136478,21.566163c-0.044031,0.46691 -0.378808,0.709159 -1.004293,0.726787l-1.110036,-0.026416c-0.563825,0 -0.823703,-0.299547 -0.779659,-0.898616l0.43608,-6.237269l-5.867261,0zm13.898207,4.043679l0.35678,0c0.422866,0 0.806101,0.189391 1.149692,0.568226c0.343552,0.378795 0.515354,0.823689 0.515354,1.334643c0,0.519781 -0.17619,0.955875 -0.528582,1.308267c-0.361207,0.361167 -0.814902,0.541797 -1.361099,0.541797l-0.317176,0c-0.449282,0 -0.832477,-0.185017 -1.149653,-0.555024c-0.325924,-0.36122 -0.488938,-0.801674 -0.488938,-1.321455c0,-0.519781 0.171802,-0.960249 0.515394,-1.321455c0.343552,-0.370007 0.779645,-0.554998 1.308227,-0.554998z"/>
 </g>
</svg>